Simulation
nRows=42
nColumns=15
endheader
time  TH_x TH_y TH_z SC_y  SC_z  SC_x  AC_y  AC_z  AC_x  GH_y  GH_z  GH_yy  EL_x  PS_y
1.424999999999999  0.000000  0.000000  0.000000  -29.68043240137581  4.0105773954252975  29.72590939212445  58.395233534421074  13.116201142719275  4.446425032660557  40.58599123038242  47.96667373652501  -36.565843479441966  24.794587983227515  120.000000
1.453499999999999  0.000000  0.000000  0.000000  -29.38329604754025  4.113648231836545  29.115936486352904  58.53128468286894  12.769274492071895  3.7495797823334662  41.61230387429689  47.46286398451297  -36.948101079082086  24.581284679544968  120.000000
1.4819999999999989  0.000000  0.000000  0.000000  -29.092087970122712  4.2187731818752185  28.26679238970138  58.668746633109265  12.443586759647191  3.092858860092434  42.74514343021563  46.85480712731196  -37.346374737834566  24.355620560929893  120.000000
1.5104999999999988  0.000000  0.000000  0.000000  -28.81406852974995  4.3139772654956134  27.185500223493648  58.795748319784934  12.129933871479054  2.510607150538336  43.95650931095683  46.1322591973528  -37.72665048923985  24.120471968246026  120.000000
1.538999999999999  0.000000  0.000000  0.000000  -28.54820967019228  4.388208558296915  25.889050954897822  58.894584456750586  11.82440076152094  2.035251868786226  45.21463120549658  45.279830419608786  -38.04950891840208  23.87722035045771  120.000000
1.567499999999999  0.000000  0.000000  0.000000  -28.286703434130114  4.43343649257804  24.404199753074437  58.94488936061279  11.530566439333274  1.690969404235518  46.488617908589596  44.27601255400212  -38.273607869744396  23.626443501915073  120.000000
1.595999999999999  0.000000  0.000000  0.000000  -28.01756992013894  4.445716213101543  22.764455220208763  58.928421738415715  11.258890631751152  1.4895356129116692  47.75235678919139  43.09586171442944  -38.36277090543474  23.368067930597935  120.000000
1.624499999999999  0.000000  0.000000  0.000000  -27.727010933397505  4.423968930034034  21.007516043170927  58.833079703967464  11.025095101997152  1.428707393072981  48.98617607239472  41.71698669413448  -38.293000983337  23.100822630925805  120.000000
1.652999999999999  0.000000  0.000000  0.000000  -27.40656882830259  4.370199964391618  19.17335907947158  58.655610732457966  10.846402902912022  1.4949963164060012  50.17736249377804  40.12752602400103  -38.056496021913865  22.82354029316142  120.000000
1.6814999999999989  0.000000  0.000000  0.000000  -27.05840714952062  4.287537262194151  17.30101640690395  58.402698348048645  10.736828288922869  1.6672641168354092  51.31903384917144  38.33316364175749  -37.663268065643905  22.535781844681722  120.000000
1.7099999999999989  0.000000  0.000000  0.000000  -26.69515490157338  4.175747367130632  15.425061245945301  58.08916881660123  10.70383505418268  1.9193522241177847  52.40773507601184  36.35792813966445  -37.13787637119571  22.23770500710577  120.000000
1.7384999999999988  0.000000  0.000000  0.000000  -26.338922079750073  4.03216173615725  13.573449824667021  57.73424874654417  10.745866161996139  2.224361368580116  53.44154677783077  34.24013790113002  -36.5120762926339  21.930367274781062  120.000000
1.7669999999999988  0.000000  0.000000  0.000000  -26.017343136580184  3.852846832060452  11.768536635507454  57.357737626490504  10.853680196108954  2.5576760820305027  54.418168690176934  32.0254348068278  -35.81539497489119  21.61608965940427  120.000000
1.7954999999999988  0.000000  0.000000  0.000000  -25.756669316462986  3.6344602176974603  10.029510916087938  56.97623261583146  11.01403932104509  2.8989229539329036  55.333757552055765  29.758669774583115  -35.066813577507986  21.29887888498589  120.000000
1.8239999999999987  0.000000  0.000000  0.000000  -25.575509924085893  3.3782958866673116  8.374664649294946  56.601709277821904  11.21359072388102  3.232927256763696  56.18282901143691  27.476962558568918  -34.26962176714898  20.984794617814487  120.000000
1.8524999999999987  0.000000  0.000000  0.000000  -25.479846734328817  3.0920802988587552  6.82267832989008  56.241498933997626  11.44185604198765  3.5495235667842717  56.95902157865558  25.20548109831672  -33.41106801380924  20.682002285047027  120.000000
1.8809999999999987  0.000000  0.000000  0.000000  -25.461422218655592  2.7899593194862486  5.391380457696246  55.90020361333662  11.691254099160272  3.843205842640332  57.65564651483178  22.95847232797663  -32.46783597276431  20.400058095083658  120.000000
1.9094999999999986  0.000000  0.000000  0.000000  -25.500040652073103  2.4901391640676978  4.095026244204356  55.582252099958744  11.954863581098994  4.112671809839369  58.26584166612328  20.7441764914457  -31.414780683973806  20.148751316233373  120.000000
1.9379999999999986  0.000000  0.000000  0.000000  -25.5683361579009  2.210439659202456  2.941412891562304  55.292328239239424  12.222701952459134  4.360634230743871  58.781808896035656  18.57116970316555  -30.233586041931822  19.936678692298234  120.000000
1.9664999999999986  0.000000  0.000000  0.000000  -25.63799391904604  1.964511720231859  1.9297046250926035  55.03427625451775  12.478728522611437  4.592839590196234  59.19323318679323  16.453729602149814  -28.919051000653855  19.76935385066691  120.000000
1.9949999999999986  0.000000  0.000000  0.000000  -25.685958724337066  1.7606424206736504  1.050534851432029  54.807451002294094  12.701590091511713  4.815408803457871  59.48597658246364  14.412969163997777  -27.48051751473405  19.64815731462934  120.000000
2.0234999999999985  0.000000  0.000000  0.000000  -25.698680864714728  1.6031598746859748  0.2895172011295611  54.60307502726172  12.869810022387114  5.031422248173164  59.6428414525122  12.473456439135962  -25.937428050159713  19.570658625986436  120.000000
2.0519999999999987  0.000000  0.000000  0.000000  -25.672199706844186  1.4956206277381379  -0.36661391053056064  54.4024046651353  12.96874354299582  5.239343271394961  59.64781494510106  10.655864343573173  -24.31063014764368  19.533534283418494  120.000000
2.0804999999999985  0.000000  0.000000  0.000000  -25.60912190317815  1.4436769154235214  -0.9259544406865065  54.181141970188435  12.9955299853186  5.432267538444375  59.49011917456214  8.971116482073324  -22.615391497598555  19.535332358712168  120.000000
2.1089999999999987  0.000000  0.000000  0.000000  -25.515113639614217  1.4548207391409331  -1.3910861278021518  53.9177086442692  12.959286075821517  5.599360429656319  59.167189597833925  7.418962044497722  -20.858672841396828  19.576333766495452  120.000000
2.1374999999999984  0.000000  0.000000  0.000000  -25.39639268309884  1.5341406859190068  -1.761703732519559  53.60115789294111  12.876471996046206  5.730391501909544  58.68508751489366  5.990378616799506  -19.04074045635863  19.657252997824024  120.000000
2.1659999999999986  0.000000  0.000000  0.000000  -25.259302008088255  1.6783825102651158  -2.0394398369532287  53.238210147453906  12.762458333505162  5.820666155091923  58.055988764496014  4.674528685533002  -17.160601574955706  19.77484873371078  120.000000
2.1944999999999983  0.000000  0.000000  0.000000  -25.110477959861537  1.8718939178416123  -2.231545499824571  52.854786569684116  12.6238638801896  5.8739876096120645  57.294950580614845  3.466003838075184  -15.220883087207664  19.920466612197096  120.000000
2.2229999999999985  0.000000  0.000000  0.000000  -24.95730617338905  2.0872547072480594  -2.3517486787224655  52.49181659473309  12.45722700310889  5.902356036231038  56.41741094359453  2.367911476212708  -13.230335556141247  20.08120540299765  120.000000
2.2514999999999983  0.000000  0.000000  0.000000  -24.807979426435608  2.291346222952518  -2.416876031622272  52.19327895979811  12.253654515713668  5.921578514635141  55.43760733864885  1.3878237203199422  -11.203690899539817  20.24284509839154  120.000000
2.2799999999999985  0.000000  0.000000  0.000000  -24.671480113781392  2.4558678504147995  -2.441879344162447  51.99085088682786  12.0083970034654  5.944427108864763  54.368876787683796  0.5276447331797413  -9.15948589193543  20.39378452037658  120.000000
2.308499999999998  0.000000  0.000000  0.000000  -24.558236834262793  2.5675085561006297  -2.433768217347493  51.89065583248854  11.72796046653196  5.972141786567533  53.22399979745721  -0.2261529353762477  -7.117942251891918  20.525285805856456  120.000000
2.3369999999999984  0.000000  0.000000  0.000000  -24.478509983802553  2.6308401783771957  -2.3914442292134526  51.871206196141934  11.431658811388317  5.993441426765195  52.01552686807299  -0.905364355977098  -5.099793353859238  20.63362522927728  120.000000
2.365499999999998  0.000000  0.000000  0.000000  -24.43707647816306  2.6612014906397587  -2.315944028503445  51.898982116647225  11.14677044675394  5.996340504738934  50.75797385421796  -1.5512688796409988  -3.123309115744036  20.72229496064029  120.000000
2.3939999999999984  0.000000  0.000000  0.000000  -24.428444239733192  2.6741605262421055  -2.2123848708672025  51.939931176354655  10.897788136609073  5.971344028999606  49.46782856044892  -2.2027115414149456  -1.2034908374261097  20.805331839318658  120.000000
2.422499999999998  0.000000  0.000000  0.000000  -24.44144830949315  2.6821508719184064  -2.08660614428322  51.96511390209582  10.701059806029772  5.909627969583512  48.16135272838511  -2.8873159145339806  0.6468602176840207  20.899689080047054  120.000000
2.4509999999999983  0.000000  0.000000  0.000000  -24.46725197973401  2.692807545927955  -1.945684858680923  51.95587279883742  10.564804159060671  5.8074712226464875  46.8540126419399  -3.6124008274743393  2.4179029868710664  21.00984261455113  120.000000
2.4794999999999985  0.000000  0.000000  0.000000  -24.5005273195447  2.7063519278459767  -1.7949943950621896  51.9065208819832  10.488732442814106  5.668984566236015  45.559367181710144  -4.363088033935128  4.1028335095984465  21.127769306595855  120.000000
2.5079999999999982  0.000000  0.000000  0.000000  -24.536657941393976  2.7186489789439654  -1.6370790565733442  51.82585075392568  10.463102887678174  5.505395755287951  44.28817326018646  -5.108135859638583  5.698094775020319  21.24211473506818  120.000000
2.5364999999999984  0.000000  0.000000  0.000000  -24.570480986892537  2.7246215759584587  -1.4741485687473015  51.73157069318903  10.471686692260297  5.331417455429054  43.04845157675446  -5.811011601904938  7.203828306565296  21.345040673536168  120.000000
2.564999999999998  0.000000  0.000000  0.000000  -24.596495183173232  2.7212017929436794  -1.3101360837148386  51.64215623546457  10.497123312446249  5.160373935433505  41.84442692809791  -6.441321783518435  8.622324075716742  21.433311639341895  120.000000
2.5934999999999984  0.000000  0.000000  0.000000  -24.609043348162484  2.710237274719768  -1.1498571246726044  51.568600331303415  10.525449741749581  5.001079110261749  40.67672671760121  -6.983126951023722  9.957022448041275  21.50750758880456  120.000000
